<svg width="30" height="31" viewBox="0 0 30 31" fill="none" xmlns="http://www.w3.org/2000/svg">
<g filter="url(#filter0_d_2162_2722)">
<mask id="path-1-inside-1_2162_2722" fill="white">
<path fill-rule="evenodd" clip-rule="evenodd" d="M15.2162 1.22468C15.0982 1.10203 14.9018 1.10203 14.7838 1.22468L12.1132 4.00005H6C4.89543 4.00005 4 4.89548 4 6.00005V21C4 22.1046 4.89543 23 6 23H24C25.1046 23 26 22.1046 26 21V6.00005C26 4.89548 25.1046 4.00005 24 4.00005H17.8868L15.2162 1.22468Z"/>
</mask>
<path d="M14.7838 1.22468L13.4868 -0.0233984L13.4868 -0.0233976L14.7838 1.22468ZM15.2162 1.22468L16.5132 -0.0233976L16.5132 -0.0233984L15.2162 1.22468ZM12.1132 4.00005V5.80005C12.6026 5.80005 13.0709 5.60077 13.4103 5.24812L12.1132 4.00005ZM17.8868 4.00005L16.5897 5.24812C16.9291 5.60077 17.3974 5.80005 17.8868 5.80005V4.00005ZM16.0809 2.47275C15.4908 3.086 14.5092 3.086 13.9191 2.47275L16.5132 -0.0233984C15.6871 -0.881946 14.3129 -0.881947 13.4868 -0.0233984L16.0809 2.47275ZM13.4103 5.24812L16.0809 2.47275L13.4868 -0.0233976L10.8162 2.75197L13.4103 5.24812ZM6 5.80005H12.1132V2.20005H6V5.80005ZM5.8 6.00005C5.8 5.88959 5.88954 5.80005 6 5.80005V2.20005C3.90132 2.20005 2.2 3.90137 2.2 6.00005H5.8ZM5.8 21V6.00005H2.2V21H5.8ZM6 21.2C5.88954 21.2 5.8 21.1105 5.8 21H2.2C2.2 23.0987 3.90132 24.8 6 24.8V21.2ZM24 21.2H6V24.8H24V21.2ZM24.2 21C24.2 21.1105 24.1105 21.2 24 21.2V24.8C26.0987 24.8 27.8 23.0987 27.8 21H24.2ZM24.2 6.00005V21H27.8V6.00005H24.2ZM24 5.80005C24.1105 5.80005 24.2 5.88959 24.2 6.00005H27.8C27.8 3.90137 26.0987 2.20005 24 2.20005V5.80005ZM17.8868 5.80005H24V2.20005H17.8868V5.80005ZM13.9191 2.47275L16.5897 5.24812L19.1838 2.75197L16.5132 -0.0233976L13.9191 2.47275Z" fill="black" mask="url(#path-1-inside-1_2162_2722)"/>
<circle cx="15" cy="12" r="3.1" stroke="black" stroke-width="1.8"/>
<path d="M8 22V22C8 19.7909 9.79086 18 12 18H18C20.2091 18 22 19.7909 22 22V22" stroke="black" stroke-width="1.8"/>
</g>
<defs>
<filter id="filter0_d_2162_2722" x="-1" y="0" width="32" height="32" filterUnits="userSpaceOnUse" color-interpolation-filters="sRGB">
<feFlood flood-opacity="0" result="BackgroundImageFix"/>
<feColorMatrix in="SourceAlpha" type="matrix" values="0 0 0 0 0 0 0 0 0 0 0 0 0 0 0 0 0 0 127 0" result="hardAlpha"/>
<feOffset dy="4"/>
<feGaussianBlur stdDeviation="2"/>
<feComposite in2="hardAlpha" operator="out"/>
<feColorMatrix type="matrix" values="0 0 0 0 0 0 0 0 0 0 0 0 0 0 0 0 0 0 0.25 0"/>
<feBlend mode="normal" in2="BackgroundImageFix" result="effect1_dropShadow_2162_2722"/>
<feBlend mode="normal" in="SourceGraphic" in2="effect1_dropShadow_2162_2722" result="shape"/>
</filter>
</defs>
</svg>
