<svg width="31" height="30" viewBox="0 0 31 30" fill="none" xmlns="http://www.w3.org/2000/svg">
<g filter="url(#filter0_d_2162_2687)">
<path d="M15.3139 6.18327L14.6641 5.55282C14.5296 5.42232 14.4001 5.29727 14.2744 5.17579C14.0546 4.96344 13.8461 4.76199 13.6414 4.56135C12.0007 2.95357 9.7423 2.49837 7.93294 3.2796L7.93277 3.27967C6.11902 4.06238 4.85697 6.05585 4.90106 8.28768L4.90106 8.28774C4.93437 9.97959 5.64322 11.4797 6.67629 12.964L6.67657 12.9644C8.93141 16.2077 11.9903 18.6438 15.2533 21.0297C17.6307 19.2988 19.895 17.5125 21.8502 15.3973L22.5111 16.0082L21.8502 15.3973C23.5093 13.6025 24.8746 11.787 25.4325 9.53903L25.4326 9.53879C26.0206 7.17217 25.0148 4.70661 23.1001 3.55445L15.3139 6.18327ZM15.3139 6.18327L15.9405 5.52965M15.3139 6.18327L15.9405 5.52965M15.9405 5.52965C16.0846 5.37928 16.212 5.24119 16.3317 5.11135C16.5615 4.86215 16.7632 4.64336 17.0019 4.42661L17.0022 4.42629M15.9405 5.52965L17.0022 4.42629M17.0022 4.42629C18.8653 2.73235 21.2782 2.45884 23.0999 3.55435L17.0022 4.42629ZM15.0872 21.1504C15.0874 21.1503 15.0877 21.1501 15.0879 21.1499C15.0877 21.1501 15.0875 21.1502 15.0873 21.1504L15.0872 21.1504ZM15.1764 21.1002L15.1834 21.0998C15.1896 21.0997 15.2038 21.0997 15.2249 21.1021C15.2452 21.1045 15.2813 21.1101 15.3277 21.1253C15.3732 21.1401 15.444 21.169 15.5214 21.2254L15.1764 21.1002Z" stroke="black" stroke-width="1.8"/>
</g>
<defs>
<filter id="filter0_d_2162_2687" x="-1" y="0" width="32" height="32" filterUnits="userSpaceOnUse" color-interpolation-filters="sRGB">
<feFlood flood-opacity="0" result="BackgroundImageFix"/>
<feColorMatrix in="SourceAlpha" type="matrix" values="0 0 0 0 0 0 0 0 0 0 0 0 0 0 0 0 0 0 127 0" result="hardAlpha"/>
<feOffset dy="4"/>
<feGaussianBlur stdDeviation="2"/>
<feComposite in2="hardAlpha" operator="out"/>
<feColorMatrix type="matrix" values="0 0 0 0 0 0 0 0 0 0 0 0 0 0 0 0 0 0 0.25 0"/>
<feBlend mode="normal" in2="BackgroundImageFix" result="effect1_dropShadow_2162_2687"/>
<feBlend mode="normal" in="SourceGraphic" in2="effect1_dropShadow_2162_2687" result="shape"/>
</filter>
</defs>
</svg>
